<svg width="512" height="512" viewBox="0 0 512 512" fill="none" xmlns="http://www.w3.org/2000/svg">
<g filter="url(#filter0_d_6_5)">
<path d="M254.964 432.12C234.143 432.12 215.369 428.707 198.644 421.88C182.26 415.053 167.753 404.984 155.124 391.672L173.556 359.416L175.604 354.808L179.188 356.856C179.871 359.245 180.724 361.976 181.748 365.048C182.772 367.779 185.161 371.192 188.916 375.288C197.791 382.797 208.031 388.771 219.636 393.208C231.583 397.645 245.065 399.864 260.084 399.864C269.641 399.864 278.345 398.499 286.196 395.768C294.388 392.696 301.385 388.771 307.188 383.992C313.332 378.872 317.94 373.069 321.012 366.584C324.425 359.757 326.132 352.589 326.132 345.08C326.132 339.277 325.449 333.987 324.084 329.208C323.06 324.429 320.841 320.163 317.428 316.408C314.356 312.312 310.089 308.387 304.628 304.632C299.167 300.536 292.169 296.269 283.636 291.832C275.103 287.395 264.863 282.616 252.916 277.496C230.729 268.963 213.151 259.747 200.18 249.848C187.551 239.608 178.505 228.856 173.044 217.592C167.924 206.328 165.364 194.723 165.364 182.776C165.364 167.075 169.289 153.421 177.14 141.816C184.991 129.869 196.084 120.653 210.42 114.168C225.097 107.341 242.505 103.928 262.644 103.928C274.249 103.928 285.343 105.635 295.924 109.048C306.847 112.12 316.916 116.557 326.132 122.36C335.689 128.163 344.052 135.331 351.22 143.864L331.252 170.488L328.18 174.584L325.108 172.536C324.767 169.805 324.084 167.075 323.06 164.344C322.036 161.613 319.647 158.2 315.892 154.104C307.7 146.253 298.996 140.963 289.78 138.232C280.564 135.16 269.641 133.624 257.012 133.624C248.479 133.624 240.799 134.819 233.972 137.208C227.487 139.597 221.855 143.011 217.076 147.448C212.297 151.885 208.543 157.005 205.812 162.808C203.423 168.269 202.228 174.072 202.228 180.216C202.228 186.019 202.911 191.309 204.276 196.088C205.641 200.867 208.031 205.475 211.444 209.912C214.857 214.349 219.465 218.787 225.268 223.224C231.412 227.661 238.921 232.099 247.796 236.536C257.012 240.973 268.105 245.752 281.076 250.872C296.777 257.357 309.748 263.843 319.988 270.328C330.569 276.472 338.761 283.128 344.564 290.296C350.708 297.123 354.975 304.632 357.364 312.824C360.095 321.016 361.46 330.061 361.46 339.96C361.46 354.637 357.705 369.144 350.196 383.48C343.028 397.475 331.593 409.08 315.892 418.296C300.191 427.512 279.881 432.12 254.964 432.12Z" fill="#FF0000"/>
</g>
<defs>
<filter id="filter0_d_6_5" x="151.124" y="103.928" width="214.336" height="336.192" filterUnits="userSpaceOnUse" color-interpolation-filters="sRGB">
<feFlood flood-opacity="0" result="BackgroundImageFix"/>
<feColorMatrix in="SourceAlpha" type="matrix" values="0 0 0 0 0 0 0 0 0 0 0 0 0 0 0 0 0 0 127 0" result="hardAlpha"/>
<feOffset dy="4"/>
<feGaussianBlur stdDeviation="2"/>
<feComposite in2="hardAlpha" operator="out"/>
<feColorMatrix type="matrix" values="0 0 0 0 0 0 0 0 0 0 0 0 0 0 0 0 0 0 0.25 0"/>
<feBlend mode="normal" in2="BackgroundImageFix" result="effect1_dropShadow_6_5"/>
<feBlend mode="normal" in="SourceGraphic" in2="effect1_dropShadow_6_5" result="shape"/>
</filter>
</defs>
</svg>
